<svg width="16" height="16" viewBox="0 0 16 16" fill="none" xmlns="http://www.w3.org/2000/svg">
<path d="M8.09326 10.0467V8.74003C8.09326 7.06003 9.45327 5.69336 11.1399 5.69336H12.4466" stroke="#CA161C" stroke-linecap="round" stroke-linejoin="round"/>
<path d="M3.74658 5.7002H5.05326C6.73326 5.7002 8.09994 7.06019 8.09994 8.74686V9.1802V11.5002" stroke="#CA161C" stroke-linecap="round" stroke-linejoin="round"/>
<path d="M4.76005 4.5L3.56006 5.7L4.76005 6.9" stroke="#CA161C" stroke-linecap="round" stroke-linejoin="round"/>
<path d="M11.24 4.5L12.44 5.7L11.24 6.9" stroke="#CA161C" stroke-linecap="round" stroke-linejoin="round"/>
<path d="M5.99992 14.6663H9.99992C13.3333 14.6663 14.6666 13.333 14.6666 9.99967V5.99967C14.6666 2.66634 13.3333 1.33301 9.99992 1.33301H5.99992C2.66659 1.33301 1.33325 2.66634 1.33325 5.99967V9.99967C1.33325 13.333 2.66659 14.6663 5.99992 14.6663Z" stroke="#CA161C" stroke-linecap="round" stroke-linejoin="round"/>
</svg>
