<svg width="24" height="26" viewBox="0 0 24 26" fill="none"  xmlns="http://www.w3.org/2000/svg">
<path fill-rule="evenodd" clip-rule="evenodd" d="M4.31814 18.1996H1.37419V24.4232H4.31814V18.1996ZM1.0057 17.4626H4.68663C4.78436 17.4627 4.87808 17.5015 4.94718 17.5706C5.01628 17.6397 5.05511 17.7334 5.05512 17.8311V24.7917C5.05511 24.8894 5.01628 24.9831 4.94718 25.0522C4.87808 25.1213 4.78436 25.1602 4.68663 25.1602H1.0057C0.907971 25.1602 0.814253 25.1213 0.74515 25.0522C0.676048 24.9831 0.637221 24.8894 0.637207 24.7917V17.8311C0.637221 17.7334 0.676048 17.6397 0.74515 17.5706C0.814253 17.5015 0.907971 17.4627 1.0057 17.4626ZM10.4207 12.731H7.47679V24.4232H10.4207V12.731ZM7.1083 11.994H10.7892C10.887 11.994 10.9807 12.0328 11.0498 12.1019C11.1189 12.171 11.1577 12.2648 11.1577 12.3625V24.7917C11.1577 24.8894 11.1189 24.9831 11.0498 25.0522C10.9807 25.1213 10.887 25.1602 10.7892 25.1602H7.1083C7.01058 25.1602 6.91686 25.1213 6.84775 25.0522C6.77865 24.9831 6.73983 24.8894 6.73981 24.7917V12.3625C6.73983 12.2648 6.77865 12.171 6.84775 12.1019C6.91686 12.0328 7.01058 11.994 7.1083 11.994ZM16.5234 15.8138H13.5794V24.4232H16.5234V15.8138ZM13.2109 15.0769H16.8918C16.9896 15.0769 17.0833 15.1157 17.1524 15.1848C17.2215 15.2539 17.2603 15.3476 17.2603 15.4453V24.7917C17.2603 24.8894 17.2215 24.9831 17.1524 25.0522C17.0833 25.1213 16.9896 25.1602 16.8918 25.1602H13.2109C13.1132 25.1602 13.0195 25.1213 12.9504 25.0522C12.8813 24.9831 12.8424 24.8894 12.8424 24.7917V15.4453C12.8424 15.3476 12.8813 15.2539 12.9504 15.1848C13.0195 15.1157 13.1132 15.0769 13.2109 15.0769ZM22.626 9.68201H19.682V24.4232H22.626V9.68201ZM19.3135 8.94503H22.9944C23.0922 8.94505 23.1859 8.98387 23.255 9.05298C23.3241 9.12208 23.3629 9.2158 23.3629 9.31352V24.7917C23.3629 24.8894 23.3241 24.9831 23.255 25.0522C23.1859 25.1213 23.0922 25.1602 22.9944 25.1602H19.3135C19.2158 25.1602 19.1221 25.1213 19.053 25.0522C18.9839 24.9831 18.945 24.8894 18.945 24.7917V9.31352C18.945 9.2158 18.9839 9.12208 19.053 9.05298C19.1221 8.98387 19.2158 8.94505 19.3135 8.94503ZM3.82861 12.861C3.28606 12.3184 2.40622 12.3184 1.86367 12.861C1.32111 13.4035 1.32111 14.2834 1.86367 14.8259C2.40622 15.3685 3.28606 15.3685 3.82861 14.8259C4.37117 14.2834 4.37117 13.4035 3.82861 12.861ZM9.93122 5.59691C9.38867 5.05436 8.50882 5.05436 7.96627 5.59691C7.42372 6.13946 7.42372 7.0193 7.96627 7.56186C8.50882 8.10441 9.38867 8.10441 9.93122 7.56186C10.4738 7.0193 10.4738 6.13946 9.93122 5.59691ZM16.0338 9.59962C15.4913 9.05706 14.6114 9.05706 14.0689 9.59962C13.5263 10.1422 13.5263 11.022 14.0689 11.5646C14.6114 12.1071 15.4913 12.1071 16.0338 11.5646C16.5764 11.022 16.5764 10.1422 16.0338 9.59962ZM22.1364 1.98321C21.5939 1.44066 20.714 1.44066 20.1715 1.98321C19.6289 2.52576 19.6289 3.40561 20.1715 3.94816C20.714 4.49071 21.5939 4.49071 22.1364 3.94816C22.679 3.40561 22.679 2.52576 22.1364 1.98321ZM15.9087 8.63571L19.526 4.33352C18.816 3.4893 18.8705 2.24206 19.6504 1.46217C20.4809 0.631751 21.8271 0.631751 22.6575 1.46217C23.4879 2.29264 23.4879 3.63883 22.6575 4.46925C21.9779 5.14883 20.9222 5.29055 20.0874 4.80555L16.5218 9.04623C17.3827 9.87081 17.3984 11.2421 16.5549 12.0857C15.7244 12.9161 14.3782 12.9161 13.5478 12.0857C12.8917 11.4296 12.7336 10.4181 13.1691 9.59191L10.7456 7.71675C10.0827 8.76196 8.66726 9.0266 7.67398 8.28144L4.49137 12.4965C5.18408 13.3416 5.1221 14.5745 4.3496 15.347C3.51919 16.1774 2.17294 16.1774 1.34252 15.347C0.512103 14.5166 0.512103 13.1703 1.34252 12.3399C2.02835 11.6541 3.09591 11.517 3.93262 12.0153L7.16398 7.73566C6.25195 6.33092 7.25981 4.453 8.94866 4.453C10.2977 4.453 11.3018 5.69248 11.0316 7.00899L13.6188 9.01076C14.2366 8.44717 15.1351 8.29446 15.9086 8.63571H15.9087Z" fill="#00215b"/>
</svg>
