<svg width="24" height="24" viewBox="0 0 24 24" fill="none"  xmlns="http://www.w3.org/2000/svg">
<path d="M12.3873 1.52444C10.6492 1.52444 8.93565 1.94321 7.4 2.73909L5.60443 0.943425C5.52627 0.865221 5.42972 0.807907 5.32364 0.776748C5.21756 0.745589 5.10534 0.741583 4.99731 0.765098C4.88928 0.788613 4.78888 0.838895 4.70535 0.911327C4.62181 0.983758 4.55782 1.07602 4.51924 1.17963L3.61252 3.61249L1.1797 4.51917C1.07612 4.5578 0.983909 4.62182 0.911512 4.70535C0.839116 4.78889 0.788858 4.88927 0.765347 4.99728C0.741837 5.1053 0.745827 5.21748 0.776953 5.32355C0.808079 5.42963 0.865343 5.52618 0.943491 5.60436L2.73911 7.40002C1.94323 8.93563 1.52446 10.6491 1.52446 12.3873C1.52446 18.3771 6.39749 23.2502 12.3873 23.2502C18.3771 23.2502 23.2502 18.3771 23.2502 12.3873C23.2502 6.39747 18.3771 1.52444 12.3873 1.52444ZM12.3873 15.9624C14.3587 15.9624 15.9625 14.3586 15.9625 12.3873C15.9625 10.4159 14.3587 8.81216 12.3873 8.81216C11.6396 8.81216 10.9451 9.04326 10.3707 9.43721L8.71102 7.77757C9.72004 6.97126 10.9983 6.48833 12.3873 6.48833C15.64 6.48833 18.2863 9.13461 18.2863 12.3873C18.2863 15.64 15.64 18.2862 12.3873 18.2862C9.13463 18.2862 6.4884 15.64 6.4884 12.3873C6.4884 10.9983 6.97128 9.72002 7.77759 8.71099L9.43724 10.3706C9.04328 10.9451 8.81218 11.6396 8.81218 12.3873C8.81218 14.3586 10.416 15.9624 12.3873 15.9624ZM12.854 11.9205L11.3298 10.3963C11.6552 10.2226 12.0184 10.1319 12.3873 10.1322C13.6308 10.1322 14.6424 11.1438 14.6424 12.3872C14.6424 13.6307 13.6308 14.6423 12.3873 14.6423C11.1439 14.6423 10.1323 13.6307 10.1323 12.3872C10.1319 12.0184 10.2226 11.6551 10.3964 11.3297L11.9206 12.854C11.9818 12.9154 12.0546 12.964 12.1347 12.9972C12.2148 13.0304 12.3006 13.0474 12.3873 13.0473C12.5562 13.0473 12.7252 12.9828 12.854 12.854C13.1118 12.5963 13.1118 12.1783 12.854 11.9205ZM5.39744 2.60329L7.61852 4.82442L7.33299 6.39949L4.89225 3.95879L5.39744 2.60329ZM2.60336 5.39737L3.95886 4.89222L6.3996 7.33292L4.82448 7.6185L2.60336 5.39737ZM12.3873 21.9301C7.12542 21.9301 2.84454 17.6492 2.84454 12.3873C2.84454 11.0021 3.14736 9.63505 3.72552 8.38639L4.1354 8.79627C4.21079 8.8717 4.30335 8.92773 4.40513 8.95957C4.50692 8.9914 4.61491 8.99809 4.71984 8.97906L6.17435 8.71539C5.5357 9.79192 5.16836 11.0474 5.16836 12.3873C5.16836 16.3679 8.40678 19.6063 12.3874 19.6063C16.3679 19.6063 19.6064 16.3679 19.6064 12.3873C19.6064 8.40672 16.3679 5.16825 12.3874 5.16825C11.0475 5.16825 9.79199 5.53563 8.71546 6.17428L8.97913 4.71978C8.99813 4.61484 8.99144 4.50687 8.95961 4.40509C8.92779 4.3033 8.87178 4.21075 8.79638 4.13533L8.3865 3.72545C9.64049 3.14521 11.0057 2.84461 12.3874 2.84447C17.6493 2.84447 21.9302 7.12536 21.9302 12.3872C21.9302 17.6492 17.6492 21.9301 12.3873 21.9301Z" fill="#00215b"/>
</svg>
