<svg width="49" height="48" viewBox="0 0 49 48" fill="none" xmlns="http://www.w3.org/2000/svg">
<path d="M44.3333 12V16.84C44.3333 20 42.3333 22 39.1733 22H32.3333V8.02C32.3333 5.8 34.1533 4 36.3733 4C38.5533 4.02 40.5533 4.9 41.9933 6.34C43.4333 7.8 44.3333 9.8 44.3333 12Z" stroke="#00215B" stroke-width="3" stroke-miterlimit="10" stroke-linecap="round" stroke-linejoin="round"/>
<path d="M4.33331 14V42C4.33331 43.66 6.21331 44.6 7.53331 43.6L10.9533 41.04C11.7533 40.44 12.8733 40.52 13.5933 41.24L16.9133 44.58C17.6933 45.36 18.9733 45.36 19.7533 44.58L23.1133 41.22C23.8133 40.52 24.9333 40.44 25.7133 41.04L29.1333 43.6C30.4533 44.58 32.3333 43.64 32.3333 42V8C32.3333 5.8 34.1333 4 36.3333 4H14.3333H12.3333C6.33331 4 4.33331 7.58 4.33331 12V14Z" stroke="#00215B" stroke-width="3" stroke-miterlimit="10" stroke-linecap="round" stroke-linejoin="round"/>
<path d="M18.3333 26.0195H24.3333" stroke="#00215B" stroke-width="3" stroke-linecap="round" stroke-linejoin="round"/>
<path d="M18.3333 18.0195H24.3333" stroke="#00215B" stroke-width="3" stroke-linecap="round" stroke-linejoin="round"/>
<path d="M12.3245 26H12.3425" stroke="#00215B" stroke-width="4" stroke-linecap="round" stroke-linejoin="round"/>
<path d="M12.3245 18H12.3425" stroke="#00215B" stroke-width="4" stroke-linecap="round" stroke-linejoin="round"/>
</svg>
