<svg width="25" height="23" viewBox="0 0 25 23" fill="none" xmlns="http://www.w3.org/2000/svg">
<path d="M21.6013 11.4976L18.9912 7.46705C18.8924 7.31368 18.7565 7.18761 18.5962 7.10044C18.4359 7.01326 18.2563 6.96776 18.0738 6.96812H6.55808C6.37586 6.96777 6.19646 7.01315 6.03632 7.10009C5.87617 7.18704 5.7404 7.31277 5.64144 7.46578L3.0233 11.4968C2.75575 11.9087 2.79708 12.4525 3.12381 12.8192L11.4952 22.2176C11.5978 22.3327 11.7235 22.4248 11.8642 22.4879C12.0048 22.5509 12.1572 22.5836 12.3114 22.5837C12.4655 22.5836 12.618 22.551 12.7586 22.4879C12.8993 22.4248 13.025 22.3327 13.1276 22.2177L21.5 12.8187C21.8262 12.4524 21.8679 11.9092 21.6013 11.4976ZM17.5451 7.9052L15.35 11.2995L13.1537 7.9052H17.5451ZM14.4889 11.6936H10.1339L12.3114 8.32845L14.4889 11.6936ZM11.469 7.90529L9.27874 11.2902L7.0892 7.90529H11.469ZM6.22278 8.29115L8.42362 11.6936H4.0129L6.22278 8.29115ZM4.21082 12.6307H8.92667L11.4202 20.7245L4.21082 12.6307ZM12.3114 20.4343L9.90723 12.6307H14.7155L12.3114 20.4343ZM13.2025 20.7247L15.6961 12.6308H20.4124L13.2025 20.7247ZM16.2112 11.6936L18.41 8.2935L20.6118 11.6936H16.2112ZM1.73794 11.6936H0.785213C0.526473 11.6936 0.31665 11.9034 0.31665 12.1622C0.31665 12.421 0.526473 12.6307 0.785213 12.6307H1.73794C1.99668 12.6307 2.2065 12.421 2.2065 12.1622C2.2065 11.9034 1.99668 11.6936 1.73794 11.6936ZM23.8385 11.6936H22.8857C22.627 11.6936 22.4172 11.9034 22.4172 12.1622C22.4172 12.421 22.627 12.6307 22.8857 12.6307H23.8385C24.0972 12.6307 24.307 12.421 24.307 12.1622C24.307 11.9034 24.0972 11.6936 23.8385 11.6936ZM20.7997 3.68275C20.6166 3.49978 20.32 3.49978 20.137 3.68275L18.5805 5.23918C18.3976 5.42215 18.3976 5.71884 18.5805 5.90182C18.624 5.94539 18.6757 5.97995 18.7325 6.0035C18.7894 6.02705 18.8504 6.03914 18.9119 6.03906C18.9735 6.03913 19.0344 6.02705 19.0913 6.0035C19.1481 5.97994 19.1998 5.94539 19.2432 5.90182L20.7997 4.34539C20.9826 4.16242 20.9826 3.86577 20.7997 3.68275ZM6.06338 5.23084L4.507 3.67437C4.32407 3.49139 4.02748 3.49139 3.84431 3.67437C3.66134 3.85734 3.66134 4.15403 3.84431 4.33701L5.40074 5.89343C5.4442 5.93701 5.49584 5.97156 5.5527 5.99512C5.60956 6.01867 5.67051 6.03075 5.73206 6.03067C5.7936 6.03074 5.85455 6.01865 5.91141 5.9951C5.96827 5.97155 6.01991 5.937 6.06338 5.89343C6.24635 5.7105 6.24635 5.41376 6.06338 5.23084ZM12.3237 0.166992C12.065 0.166992 11.8552 0.376767 11.8552 0.635554V3.68908C11.8552 3.94787 12.065 4.15764 12.3237 4.15764C12.5825 4.15764 12.7923 3.94787 12.7923 3.68908V0.635554C12.7923 0.376814 12.5825 0.166992 12.3237 0.166992ZM12.6548 4.9429C12.5677 4.85575 12.4468 4.80562 12.3236 4.80562C12.2003 4.80562 12.0794 4.85575 11.9923 4.9429C11.9047 5.03098 11.8554 5.15 11.855 5.27418C11.855 5.39788 11.9051 5.5183 11.9923 5.60545C12.0794 5.69307 12.2003 5.74274 12.3236 5.74274C12.4468 5.74274 12.5677 5.69307 12.6548 5.60545C12.7424 5.5183 12.7921 5.39741 12.7921 5.27418C12.7921 5.15095 12.7424 5.0301 12.6548 4.9429Z" fill="#00215b"/>
</svg>
